<mxfile host="app.diagrams.net" modified="2024-06-01T00:00:00.000Z" agent="5.0" version="23.1.2" editor="diagramly" type="device">
  <diagram id="pipeline-architecture" name="Pipeline Architecture" compressed="false">
    <mxGraphModel dx="1422" dy="794" grid="1" gridSize="10" guides="1" tooltips="1" connect="1" arrows="1" fold="1" page="1" pageScale="1" pageWidth="850" pageHeight="1100" math="0">
      <root>
        <mxCell id="0" />
        <mxCell id="1" parent="0" />
        <mxCell id="2" value="Pipeline Architecture&#xa;Coming Soon" style="rounded=1;whiteSpace=wrap;html=1;fillColor=#dae8fc;strokeColor=#6c8ebf;fontStyle=1;" vertex="1" parent="1">
          <mxGeometry x="280" y="160" width="220" height="100" as="geometry" />
        </mxCell>
      </root>
    </mxGraphModel>
  </diagram>
</mxfile>
